<svg width="64" height="40" viewBox="0 0 64 40" fill="none" xmlns="http://www.w3.org/2000/svg">
<rect width="64" height="40" fill="white"/>
<g transform="translate(15, 5) scale(1.02)">
  <path d="M0 2.17569V27.1743C0 28.3709 0.979059 29.35 2.17569 29.35H17.1118C28.4036 29.35 33.2989 23.0296 33.2989 14.6424C33.2989 6.29861 28.4036 0 17.1118 0H2.17569C0.979059 0 0 0.979059 0 2.17569Z" fill="white"/>
  <path d="M9.99707 6.13536V24.6069H18.0362C25.3356 24.6069 28.5013 20.484 28.5013 14.6532C28.5013 9.07253 25.3356 4.74292 18.0362 4.74292H11.3895C10.6171 4.74292 9.99707 5.37387 9.99707 6.13536Z" fill="#CC0066"/>
  <path d="M17.1117 27.3593H4.12284C2.96972 27.3593 2.03418 26.4238 2.03418 25.2707V4.09037C2.03418 2.93725 2.96972 2.00171 4.12284 2.00171H17.1117C29.4369 2.00171 31.2754 9.93208 31.2754 14.6533C31.2754 22.8448 26.2387 27.3593 17.1117 27.3593ZM4.12284 2.69793C3.35047 2.69793 2.7304 3.318 2.7304 4.09037V25.2707C2.7304 26.043 3.35047 26.6631 4.12284 26.6631H17.1117C25.7927 26.6631 30.5792 22.3988 30.5792 14.6533C30.5792 4.25354 22.1375 2.69793 17.1117 2.69793H4.12284Z" fill="black"/>
  <path d="M12.8258 12.162C13.1087 12.162 13.3697 12.2055 13.6199 12.2925C13.8702 12.3796 14.0768 12.521 14.2618 12.695C14.4358 12.88 14.5773 13.1084 14.686 13.3695C14.7839 13.6415 14.8383 13.9569 14.8383 14.3268C14.8383 14.6532 14.7948 14.9469 14.7187 15.2188C14.6316 15.4908 14.512 15.7301 14.3488 15.9259C14.1856 16.1217 13.9789 16.274 13.7287 16.3937C13.4785 16.5025 13.1848 16.5678 12.8476 16.5678H10.9438V12.1511H12.8258V12.162ZM12.7605 15.7628C12.902 15.7628 13.0325 15.741 13.1739 15.6975C13.3045 15.654 13.4241 15.5778 13.522 15.469C13.6199 15.3603 13.707 15.2297 13.7722 15.0557C13.8375 14.8816 13.8702 14.6858 13.8702 14.4356C13.8702 14.218 13.8484 14.0113 13.8049 13.8373C13.7614 13.6632 13.6852 13.5 13.5873 13.3804C13.4894 13.2607 13.3589 13.1519 13.1957 13.0867C13.0325 13.0214 12.8367 12.9888 12.5974 12.9888H11.9012V15.7736H12.7605V15.7628Z" fill="white"/>
  <path d="M18.7654 12.162V12.9779H16.4374V13.9243H18.5805V14.6749H16.4374V15.7519H18.8198V16.5678H15.4692V12.1511H18.7654V12.162Z" fill="white"/>
  <path d="M22.0941 12.1621L23.7476 16.5787H22.7359L22.3987 15.5997H20.7451L20.397 16.5787H19.418L21.0824 12.1621H22.0941ZM22.1485 14.8708L21.5937 13.25H21.5828L21.0062 14.8708H22.1485Z" fill="white"/>
  <path d="M25.3251 12.1621V15.7629H27.479V16.5787H24.3569V12.1621H25.3251Z" fill="white"/>
  <path d="M6.36386 16.4047C7.48735 16.4047 8.39812 15.4939 8.39812 14.3705C8.39812 13.247 7.48735 12.3362 6.36386 12.3362C5.24036 12.3362 4.32959 13.247 4.32959 14.3705C4.32959 15.4939 5.24036 16.4047 6.36386 16.4047Z" fill="black"/>
  <path d="M7.89793 24.6071C6.19002 24.6071 4.81934 23.2255 4.81934 21.5285V19.1243C4.81934 18.2758 5.50468 17.5796 6.36407 17.5796C7.21259 17.5796 7.90881 18.2649 7.90881 19.1243V24.6071H7.89793Z" fill="black"/>
</g>
</svg>
